<svg xmlns="http://www.w3.org/2000/svg" version="1.1" xmlns:xlink="http://www.w3.org/1999/xlink" xmlns:svgjs="http://svgjs.dev/svgjs" width="256" height="256"><svg xmlns="http://www.w3.org/2000/svg" width="256" height="256" viewBox="0 0 100 100"><path fill="#000000" d="M56.76 60.84L56.76 60.84Q58.12 60.84 58.12 64.52L58.12 64.52Q58.12 66.52 56.44 69.36Q54.76 72.20 52.08 74.56Q49.40 76.92 46.12 78.44Q42.84 79.96 39.72 79.96L39.72 79.96Q35.00 79.96 33.20 77.60Q31.40 75.24 31.40 70.64Q31.40 66.04 35.00 54.84L35.00 54.84Q23.96 54.36 18.92 54.36L18.92 54.36L17.80 54.36Q16.36 63.24 16.36 73L16.36 73Q16.36 77.32 13.08 78.92L13.08 78.92Q11.56 79.64 10.16 80.28Q8.76 80.92 7.16 80.92L7.16 80.92Q3.16 80.92 3.16 73.72Q3.16 66.52 6.44 55.24L6.44 55.24Q2.92 55.64 0.24 56.04Q-2.44 56.44-3.96 56.44Q-5.48 56.44-5.48 55.64L-5.48 55.64Q-5.48 53.24-1.56 50.76L-1.56 50.76Q2.44 48.28 9.24 47L9.24 47Q16.76 27.88 27.64 21.48L27.64 21.48Q31.64 19.08 36.12 19.08L36.12 19.08Q44.12 19.16 47.68 23.40Q51.24 27.64 51.28 34.64Q51.32 41.64 47.00 52.84L47.00 52.84Q45.40 57.16 44.04 60.68Q42.68 64.20 42.68 66.36Q42.68 68.52 43.00 69.64Q43.32 70.76 44.52 70.76L44.52 70.76Q46.68 70.76 54.68 62.44L54.68 62.44Q56.12 60.84 56.76 60.84ZM39.72 37L39.72 37Q39.72 30.04 34.52 30.04L34.52 30.04Q29.24 30.04 25.44 34.48Q21.64 38.92 19.56 46.36L19.56 46.36L37.72 46.60Q39.72 40.20 39.72 37ZM77.40 76.20L77.40 76.20Q77.40 80.92 68.20 80.92L68.20 80.92Q66.20 80.92 65.84 78.88Q65.48 76.84 65.48 73.80Q65.48 70.76 65.92 67.28Q66.36 63.80 67.08 59.72L67.08 59.72Q68.44 51.88 70.96 42.80Q73.48 33.72 75.96 28.76L75.96 28.76Q70.92 29.08 65.96 30.56Q61.00 32.04 58.92 32.64Q56.84 33.24 55.48 33.24Q54.12 33.24 54.12 32.36L54.12 32.36Q54.12 31.32 55.72 29.28Q57.32 27.24 60.28 25.16L60.28 25.16Q67.80 20.04 77 19.96L77 19.96L103.32 20.20Q105.48 20.20 105.48 21.88L105.48 21.88Q105.48 22.36 104.84 23.60Q104.20 24.84 103.72 26.28L103.72 26.28Q102.68 29.16 99.36 29.16Q96.04 29.16 83.56 28.68L83.56 28.68Q83.24 32.20 82.28 37.68Q81.32 43.16 80.20 49.64L80.20 49.64Q77.48 66.20 77.40 76.20Z"></path></svg><style>@media (prefers-color-scheme: light) { :root { filter: none; } }
@media (prefers-color-scheme: dark) { :root { filter: invert(100%); } }
</style></svg>